<svg width="32" height="32" viewBox="0 0 32 32" fill="none" xmlns="http://www.w3.org/2000/svg">
<path d="M15.9999 3.2002C13.3483 3.2002 11.1988 5.3497 11.1988 8.00125C11.1988 10.3803 12.9292 12.3551 15.2 12.736V15.2002H10.4C9.07451 15.2002 8 16.2748 8 17.6002V19.2668C5.72976 19.648 4 21.6226 4 24.0013C4 26.6528 6.1495 28.8023 8.80106 28.8023C11.4526 28.8023 13.6021 26.6528 13.6021 24.0013C13.6021 21.622 11.8713 19.6468 9.6 19.2664V17.6002C9.6 17.1584 9.95818 16.8002 10.4 16.8002H21.6C22.0418 16.8002 22.4 17.1584 22.4 17.6002V19.2668C20.1298 19.648 18.4 21.6226 18.4 24.0013C18.4 26.6528 20.5494 28.8023 23.2011 28.8023C25.8526 28.8023 28.0021 26.6528 28.0021 24.0013C28.0021 21.622 26.2712 19.6468 24 19.2664V17.6002C24 16.2748 22.9254 15.2002 21.6 15.2002H16.8V12.7359C19.0707 12.355 20.801 10.3802 20.801 8.00125C20.801 5.3497 18.6514 3.2002 15.9999 3.2002ZM12.7988 8.00125C12.7988 6.23335 14.232 4.8002 15.9999 4.8002C17.7678 4.8002 19.201 6.23335 19.201 8.00125C19.201 9.76914 17.7678 11.2023 15.9999 11.2023C14.232 11.2023 12.7988 9.76914 12.7988 8.00125ZM5.6 24.0013C5.6 22.2333 7.03315 20.8002 8.80106 20.8002C10.5689 20.8002 12.0021 22.2333 12.0021 24.0013C12.0021 25.7692 10.5689 27.2023 8.80106 27.2023C7.03315 27.2023 5.6 25.7692 5.6 24.0013ZM23.2011 20.8002C24.969 20.8002 26.4021 22.2333 26.4021 24.0013C26.4021 25.7692 24.969 27.2023 23.2011 27.2023C21.4331 27.2023 20 25.7692 20 24.0013C20 22.2333 21.4331 20.8002 23.2011 20.8002Z" fill="black"/>
</svg>
