<svg width="30" height="32" viewBox="0 0 30 30" fill="none" xmlns="http://www.w3.org/2000/svg">
    <path
        d="M12.2239 23.7236L12.224 23.7235L12.2185 23.7164C12.0255 23.4666 11.7597 23.2773 11.5073 23.1511C11.2562 23.0255 10.9433 22.925 10.625 22.925H8.75C5.71127 22.925 3.25 20.4704 3.25 17.45V16.2L3.25 8.725C3.25 5.70465 5.71127 3.25 8.75 3.25L21.25 3.25C24.2887 3.25 26.75 5.70465 26.75 8.725L26.75 17.45C26.75 20.4704 24.2887 22.925 21.25 22.925H19.375C18.7496 22.925 18.155 23.2249 17.7779 23.7212L17.7761 23.7236L15.9011 26.2111L15.9 26.2125C15.6083 26.6014 15.275 26.7375 15 26.7375C14.725 26.7375 14.3917 26.6014 14.1 26.2125L14.0989 26.2111L12.2239 23.7236ZM8.75 17.9375H16.25C17.1767 17.9375 17.9375 17.1767 17.9375 16.25C17.9375 15.3233 17.1767 14.5625 16.25 14.5625L8.75 14.5625C7.82329 14.5625 7.0625 15.3233 7.0625 16.25C7.0625 17.1767 7.82329 17.9375 8.75 17.9375ZM8.75 11.6875L21.25 11.6875C22.1767 11.6875 22.9375 10.9267 22.9375 10C22.9375 9.07329 22.1767 8.3125 21.25 8.3125L8.75 8.3125C7.82329 8.3125 7.0625 9.07329 7.0625 10C7.0625 10.9267 7.82329 11.6875 8.75 11.6875Z"
        stroke="black" stroke-width="1.5" />
</svg>
