<svg width="32" height="32" viewBox="0 0 32 32" fill="none" xmlns="http://www.w3.org/2000/svg">
<path d="M24.9375 28.125H7.1875C6.20982 28.124 5.27247 27.7352 4.58114 27.0439C3.88981 26.3525 3.50099 25.4152 3.5 24.4375V15.375C3.50099 14.3973 3.88981 13.46 4.58114 12.7686C5.27247 12.0773 6.20982 11.6885 7.1875 11.6875H13.4288C13.9095 11.6875 14.3705 11.4965 14.7104 11.1566C15.0503 10.8167 15.2413 10.3557 15.2413 9.875C15.2422 8.89732 15.6311 7.95997 16.3224 7.26864C17.0137 6.57731 17.9511 6.18849 18.9287 6.1875H24.9375C25.9152 6.18849 26.8525 6.57731 27.5439 7.26864C28.2352 7.95997 28.624 8.89732 28.625 9.875V24.4375C28.6238 25.4151 28.235 26.3524 27.5437 27.0437C26.8524 27.735 25.9151 28.1238 24.9375 28.125ZM7.1875 13.5625C6.7068 13.5625 6.24578 13.7535 5.90587 14.0934C5.56596 14.4333 5.375 14.8943 5.375 15.375V24.4375C5.375 24.9182 5.56596 25.3792 5.90587 25.7191C6.24578 26.059 6.7068 26.25 7.1875 26.25H24.9375C25.4182 26.25 25.8792 26.059 26.2191 25.7191C26.559 25.3792 26.75 24.9182 26.75 24.4375V9.875C26.75 9.3943 26.559 8.93328 26.2191 8.59337C25.8792 8.25346 25.4182 8.0625 24.9375 8.0625H18.9287C18.448 8.0625 17.987 8.25346 17.6471 8.59337C17.3072 8.93328 17.1162 9.3943 17.1162 9.875C17.1151 10.8526 16.7262 11.7899 16.0349 12.4812C15.3436 13.1725 14.4064 13.5613 13.4288 13.5625H7.1875Z" fill="black"/>
<path d="M7.5625 13.5625C7.31386 13.5625 7.0754 13.4637 6.89959 13.2879C6.72377 13.1121 6.625 12.8736 6.625 12.625V3.9375C6.625 3.68886 6.72377 3.4504 6.89959 3.27459C7.0754 3.09877 7.31386 3 7.5625 3H24.5625C24.8111 3 25.0496 3.09877 25.2254 3.27459C25.4012 3.4504 25.5 3.68886 25.5 3.9375V7.125C25.5 7.37364 25.4012 7.6121 25.2254 7.78791C25.0496 7.96373 24.8111 8.0625 24.5625 8.0625C24.3139 8.0625 24.0754 7.96373 23.8996 7.78791C23.7238 7.6121 23.625 7.37364 23.625 7.125V4.875H8.5V12.625C8.5 12.8736 8.40123 13.1121 8.22541 13.2879C8.0496 13.4637 7.81114 13.5625 7.5625 13.5625Z" fill="black"/>
</svg>
