<svg width="30" height="30" viewBox="0 0 30 30" fill="none" xmlns="http://www.w3.org/2000/svg">
<path fill-rule="evenodd" clip-rule="evenodd" d="M0.756797 10.1095H6.60398V28.6366H0.756797V10.1095ZM3.53133 7.79221H3.48891C1.37227 7.79221 0 6.37588 0 4.58057C0 2.75033 1.41281 1.36377 3.57187 1.36377C5.72906 1.36377 7.05562 2.74682 7.09781 4.57541C7.09781 6.37049 5.72906 7.79221 3.53133 7.79221ZM30 28.6366H23.3695V19.049C23.3695 16.5396 22.3324 14.8263 20.0517 14.8263C18.3073 14.8263 17.3372 15.9824 16.8855 17.0964C16.7163 17.4963 16.7426 18.0534 16.7426 18.6105V28.6363H10.174C10.174 28.6363 10.2586 11.6531 10.174 10.1092H16.7426V13.0169C17.1307 11.7456 19.2295 9.93111 22.5792 9.93111C26.7349 9.93111 29.9998 12.596 29.9998 18.3346L30 28.6366Z" fill="#007EBB"/>
</svg>
