<svg width="210" height="80" viewBox="0 0 210 80" fill="none" xmlns="http://www.w3.org/2000/svg">
<path d="M25.5304 50.834C14.7799 34.6528 16.9595 13.6321 29.6311 0C26.6756 1.1083 23.7941 2.54908 21.0603 4.35931C2.14528 16.957 -2.98984 42.4848 9.60783 61.3998C22.2055 80.3148 47.7333 85.4499 66.6483 72.8522C69.3821 71.042 71.8204 68.9362 74 66.6088C56.5258 73.0739 36.2809 66.9782 25.5304 50.834Z" fill="#FFDE17"/>
<path d="M46.034 70.0814C47.4214 70.0814 48.5461 68.9567 48.5461 67.5693C48.5461 66.1819 47.4214 65.0571 46.034 65.0571C44.6466 65.0571 43.5219 66.1819 43.5219 67.5693C43.5219 68.9567 44.6466 70.0814 46.034 70.0814Z" fill="#FFDE17" stroke="white" stroke-width="0.8" stroke-miterlimit="10"/>
<path d="M20.5121 67.0243C21.8996 67.0243 23.0243 65.8996 23.0243 64.5121C23.0243 63.1247 21.8996 62 20.5121 62C19.1247 62 18 63.1247 18 64.5121C18 65.8996 19.1247 67.0243 20.5121 67.0243Z" fill="#FFDE17" stroke="white" stroke-width="0.8" stroke-miterlimit="10"/>
<path d="M20.2104 7.20397C21.5978 7.20397 22.7225 6.07925 22.7225 4.69183C22.7225 3.30441 21.5978 2.17969 20.2104 2.17969C18.823 2.17969 17.6982 3.30441 17.6982 4.69183C17.6982 6.07925 18.823 7.20397 20.2104 7.20397Z" fill="#FFDE17" stroke="white" stroke-miterlimit="10"/>
<path d="M10.858 17.9158C11.7032 16.2912 11.6137 14.571 10.658 14.0738C9.70226 13.5766 8.24233 14.4907 7.39711 16.1154C6.55189 17.7401 6.64145 19.4602 7.59715 19.9574C8.55285 20.4546 10.0128 19.5405 10.858 17.9158Z" fill="#FFDE17"/>
<path d="M29.2843 77.3291C29.6166 76.5837 28.39 75.3125 26.5447 74.4898C24.6994 73.6671 22.934 73.6045 22.6017 74.35C22.2694 75.0954 23.4959 76.3666 25.3413 77.1893C27.1866 78.0119 28.9519 78.0745 29.2843 77.3291Z" fill="#FFDE17"/>
<path d="M62.5 77C63.3284 77 64 76.3284 64 75.5C64 74.6716 63.3284 74 62.5 74C61.6716 74 61 74.6716 61 75.5C61 76.3284 61.6716 77 62.5 77Z" fill="#FFDE17" stroke="white" stroke-width="0.5" stroke-miterlimit="10"/>
<path d="M3.51215 54.9349C4.89956 54.9349 6.02429 53.8102 6.02429 52.4228C6.02429 51.0354 4.89956 49.9106 3.51215 49.9106C2.12473 49.9106 1 51.0354 1 52.4228C1 53.8102 2.12473 54.9349 3.51215 54.9349Z" fill="#FFDE17" stroke="white" stroke-width="0.8" stroke-miterlimit="10"/>
<path d="M24.4 51L39.08 51.04V56.04H24.88C23.48 56.04 22.16 55.72 20.96 55.12C19.2 54.24 17.76 52.8 16.92 51.04C16.32 49.84 16 48.52 16 47.12V28.04H21V47.6C21.24 49.36 22.64 50.76 24.4 51ZM62.9844 28H67.9844V42C67.9844 49.72 61.7044 56 53.9844 56C46.2644 56 39.9844 49.72 39.9844 42V28H44.9844V42C44.9844 46.96 49.0244 51 53.9844 51C58.9444 51 62.9844 46.96 62.9844 42V28ZM94.9766 28L99.9766 28.04V56.04L94.9766 52.2L76.9766 38.32V56.04H71.9766V28.12L76.9766 31.96L94.9766 45.84V28ZM128.409 51L130.969 56H125.369L122.809 51L116.689 39L110.569 51L108.009 56H102.409L104.969 51L116.689 28L128.409 51ZM151.983 43.08L155.983 51.04L158.543 56.04H152.943L150.383 51.04L147.703 45.8L147.583 45.56C146.703 44.12 145.143 43.16 143.343 43.16H138.343V56.04H133.343V28.04H151.023C153.103 28.04 154.983 28.88 156.343 30.24C157.703 31.64 158.543 33.52 158.543 35.6C158.543 38.64 156.743 41.28 154.143 42.48C153.463 42.8 152.743 43 151.983 43.08ZM138.343 38.2L151.023 38.16C151.383 38.16 151.743 38.08 152.063 37.92C152.983 37.52 153.583 36.6 153.583 35.6C153.583 34.68 153.103 34.04 152.823 33.76C152.503 33.44 151.903 33.04 151.023 33.04H138.343V38.2Z" fill="white"/>
<path d="M177.992 46.2L175.696 53.886L175.066 56L173.778 54.208L171.832 51.534L169.9 54.208L168.612 55.986L167.982 53.886L165.7 46.2H167.52L169.284 52.108L170.768 50.05L171.048 49.658L171.846 48.566L172.644 49.658L172.924 50.05L174.408 52.108L176.172 46.2H177.992ZM182.869 46.2C185.571 46.2 187.769 48.398 187.769 51.1C187.769 53.802 185.571 56 182.869 56C180.167 56 177.969 53.802 177.969 51.1C177.969 48.398 180.167 46.2 182.869 46.2ZM182.869 54.25C184.605 54.25 186.019 52.836 186.019 51.1C186.019 49.364 184.605 47.95 182.869 47.95C181.133 47.95 179.719 49.364 179.719 51.1C179.719 52.836 181.133 54.25 182.869 54.25ZM195.343 51.478L196.743 54.278L197.639 56.028H195.679L194.783 54.278L193.845 52.444L193.803 52.36C193.495 51.856 192.949 51.52 192.319 51.52H190.569V56.028H188.819V46.228H195.007C195.735 46.228 196.393 46.522 196.869 46.998C197.345 47.474 197.639 48.132 197.639 48.86C197.639 49.924 197.009 50.848 196.099 51.268C195.861 51.38 195.609 51.45 195.343 51.478ZM190.569 49.784L195.007 49.77C195.133 49.77 195.259 49.742 195.371 49.686C195.693 49.546 195.903 49.224 195.903 48.874C195.903 48.552 195.735 48.328 195.637 48.23C195.525 48.118 195.315 47.978 195.007 47.978H190.569V49.784ZM208.859 46.2L204.575 50.134L208.817 56H206.661L203.273 51.324L200.795 53.578V56H199.045V46.2H200.795V51.212L202.237 49.896L203.539 48.706L206.269 46.2H208.859Z" fill="white"/>
</svg>
