<svg width="32" height="32" viewBox="0 0 24 26" fill="none" xmlns="http://www.w3.org/2000/svg">
    <path
        d="M6.1446 18.3439L12.3154 7.63052C12.6427 7.06225 13.2305 6.67501 13.9495 6.55399C14.6685 6.43298 15.4597 6.58809 16.1492 6.98521C16.8386 7.38233 17.3698 7.98894 17.6259 8.67157C17.882 9.35421 17.8419 10.057 17.5146 10.6252L10.9324 22.0528C10.3869 22.9999 9.40722 23.6453 8.20894 23.847C7.01066 24.0487 5.69191 23.7902 4.54282 23.1283C3.39372 22.4664 2.5084 21.4554 2.08162 20.3177C1.65483 19.18 1.72155 18.0087 2.26708 17.0616L9.67205 4.20561C10.4358 2.87964 11.8073 1.97609 13.4849 1.69371C15.1625 1.41133 17.0088 1.77326 18.6175 2.69988C20.2262 3.6265 21.4657 5.0419 22.0632 6.63472C22.6607 8.22754 22.5673 9.86729 21.8035 11.1933L14.3986 24.0493"
        stroke="black" stroke-width="2" stroke-linecap="round" stroke-linejoin="round" />
</svg>
