<svg width="38" height="38" viewBox="0 0 38 38" fill="none" xmlns="http://www.w3.org/2000/svg">
<path fill-rule="evenodd" clip-rule="evenodd" d="M34.8334 26.9168V30.0835H12.6667V26.9168H34.8334ZM34.8334 17.4168V20.5835H12.6667V17.4168H34.8334ZM34.8334 7.91683V11.0835H12.6667V7.91683H34.8334ZM6.33341 31.6668C4.58451 31.6668 3.16675 30.2491 3.16675 28.5002C3.16675 26.7513 4.58451 25.3335 6.33341 25.3335C8.08232 25.3335 9.50008 26.7513 9.50008 28.5002C9.50008 30.2491 8.08232 31.6668 6.33341 31.6668ZM6.33341 22.1668C4.58451 22.1668 3.16675 20.7491 3.16675 19.0002C3.16675 17.2513 4.58451 15.8335 6.33341 15.8335C8.08232 15.8335 9.50008 17.2513 9.50008 19.0002C9.50008 20.7491 8.08232 22.1668 6.33341 22.1668ZM6.33341 12.6668C4.58451 12.6668 3.16675 11.2491 3.16675 9.50016C3.16675 7.75126 4.58451 6.3335 6.33341 6.3335C8.08232 6.3335 9.50008 7.75126 9.50008 9.50016C9.50008 11.2491 8.08232 12.6668 6.33341 12.6668Z" fill="white"/>
</svg>
