<svg width="30" height="30" viewBox="0 0 30 30" fill="none" xmlns="http://www.w3.org/2000/svg">
<g clip-path="url(#clip0_1257_730)">
<path d="M26.5943 0H3.43074C1.54644 0 0 1.25292 0 2.81655V27.1561C0 28.7197 1.54644 30 3.43074 30H17.0451C17.4169 30 17.7734 29.8734 18.0363 29.6552L29.5952 20.0566C29.8581 19.8385 30 19.5405 30 19.2321V2.81657C30 1.25292 28.4786 0 26.5943 0ZM2.80057 27.1561V2.81655C2.80057 2.53569 3.09233 2.32394 3.43074 2.32394H26.5943C26.9327 2.32394 27.1994 2.53569 27.1994 2.81655V17.5H18.3597C16.4754 17.5 14.9364 18.7593 14.9364 20.323V27.6761H3.43074C3.09233 27.6761 2.80057 27.4369 2.80057 27.1561ZM17.7369 26.6019V20.323C17.7369 20.0421 18.0213 19.8239 18.3597 19.8239H25.9265L17.7369 26.6019Z" fill="white"/>
</g>
<defs>
<clipPath id="clip0_1257_730">
<rect width="30" height="30" fill="white"/>
</clipPath>
</defs>
</svg>
