<svg width="27" height="26" viewBox="0 0 27 26" fill="none" xmlns="http://www.w3.org/2000/svg">
<path d="M15.3693 25.125H11.5962C11.3646 25.1251 11.1412 25.0394 10.969 24.8845C10.7968 24.7297 10.6881 24.5165 10.6637 24.2863L10.3843 21.6556C9.99429 21.5229 9.61329 21.3651 9.24367 21.1831L7.18805 22.8456C7.00813 22.9905 6.78106 23.0639 6.55037 23.0517C6.31968 23.0395 6.10163 22.9425 5.93805 22.7794L3.26992 20.1113C3.10681 19.9477 3.00984 19.7296 2.99762 19.4989C2.98539 19.2682 3.05877 19.0412 3.20367 18.8613L4.8668 16.8031C4.68454 16.4336 4.5265 16.0526 4.39367 15.6625L1.75867 15.3813C1.52849 15.3569 1.31546 15.2482 1.16061 15.0761C1.00575 14.9041 0.920023 14.6808 0.919922 14.4494V10.6756C0.920023 10.4442 1.00575 10.2209 1.16061 10.0489C1.31546 9.87681 1.52849 9.76813 1.75867 9.74375L4.3893 9.46438C4.52213 9.07432 4.68017 8.69331 4.86242 8.32375L3.1993 6.26563C3.05439 6.08571 2.98102 5.85864 2.99324 5.62795C3.00547 5.39726 3.10244 5.17921 3.26555 5.01563L5.93367 2.3475C6.09726 2.18439 6.31531 2.08742 6.546 2.0752C6.77668 2.06297 7.00376 2.13635 7.18367 2.28125L9.2418 3.94375C9.61141 3.76181 9.99242 3.60398 10.3824 3.47125L10.6618 0.840627C10.6858 0.609675 10.7946 0.395844 10.9673 0.240546C11.1399 0.0852475 11.364 -0.000467043 11.5962 1.91417e-06H15.3693C15.6009 -5.12782e-05 15.8243 0.0856099 15.9965 0.240478C16.1686 0.395346 16.2774 0.60846 16.3018 0.838752L16.5805 3.46938C16.9708 3.6021 17.352 3.75993 17.7218 3.94188L19.7793 2.27938C19.9592 2.13447 20.1863 2.0611 20.417 2.07332C20.6477 2.08555 20.8657 2.18252 21.0293 2.34563L23.6974 5.01375C23.8605 5.17734 23.9575 5.39539 23.9697 5.62608C23.982 5.85676 23.9086 6.08384 23.7637 6.26375L22.1005 8.32188C22.2825 8.69155 22.4406 9.07255 22.5737 9.4625L25.2043 9.74188C25.4344 9.7664 25.6472 9.87514 25.802 10.0472C25.9567 10.2192 26.0423 10.4424 26.0424 10.6738V14.4475C26.0429 14.6788 25.9578 14.9021 25.8035 15.0745C25.6493 15.2469 25.4367 15.3561 25.2068 15.3813L22.5762 15.6606C22.4431 16.0506 22.285 16.4316 22.103 16.8013L23.7662 18.8594C23.9111 19.0393 23.9845 19.2664 23.9722 19.4971C23.96 19.7277 23.863 19.9458 23.6999 20.1094L21.0318 22.7794C20.8682 22.9425 20.6502 23.0395 20.4195 23.0517C20.1888 23.0639 19.9617 22.9905 19.7818 22.8456L17.7243 21.1831C17.3545 21.3651 16.9733 21.5229 16.583 21.6556L16.3043 24.2863C16.2799 24.517 16.1707 24.7304 15.998 24.8854C15.8253 25.0403 15.6013 25.1257 15.3693 25.125ZM12.438 23.25H14.5249L14.7805 20.84C14.8006 20.6514 14.8774 20.4732 15.0008 20.3292C15.1243 20.1851 15.2885 20.0819 15.4718 20.0331C16.1321 19.857 16.7661 19.5937 17.3568 19.25C17.5213 19.1542 17.711 19.1107 17.9008 19.1253C18.0906 19.1399 18.2715 19.212 18.4193 19.3319L20.3043 20.855L21.7799 19.3794L20.2543 17.5C20.1344 17.3522 20.0623 17.1713 20.0477 16.9815C20.0331 16.7917 20.0766 16.602 20.1724 16.4375C20.5154 15.8472 20.7779 15.2136 20.953 14.5538C21.0019 14.3703 21.1052 14.206 21.2494 14.0826C21.3935 13.9592 21.5718 13.8824 21.7605 13.8625L24.1699 13.6063V11.5194L21.7605 11.2631C21.5718 11.2432 21.3935 11.1664 21.2494 11.043C21.1052 10.9196 21.0019 10.7553 20.953 10.5719C20.778 9.91178 20.5154 9.27804 20.1724 8.6875C20.0766 8.52303 20.0331 8.33328 20.0477 8.14349C20.0623 7.95369 20.1344 7.77285 20.2543 7.625L21.7774 5.74L20.3018 4.26438L18.4168 5.7875C18.2689 5.9074 18.0881 5.97946 17.8983 5.99408C17.7085 6.00871 17.5188 5.96521 17.3543 5.86938C16.7638 5.52668 16.1303 5.26416 15.4705 5.08875C15.2872 5.03999 15.123 4.93675 14.9996 4.79269C14.8762 4.64863 14.7994 4.47051 14.7793 4.28188L14.5262 1.875H12.438L12.1824 4.285C12.1623 4.47372 12.0854 4.65189 11.9619 4.79596C11.8383 4.94004 11.674 5.04322 11.4905 5.09188C10.8312 5.26808 10.1984 5.53145 9.60867 5.875C9.4442 5.97084 9.25445 6.01433 9.06466 5.99971C8.87486 5.98508 8.69402 5.91303 8.54617 5.79313L6.66305 4.2675L5.18805 5.74313L6.7118 7.62813C6.8316 7.77604 6.90354 7.95692 6.91806 8.14671C6.93257 8.3365 6.88897 8.52622 6.79305 8.69063C6.45062 9.28123 6.18812 9.91468 6.01242 10.5744C5.96366 10.7577 5.86042 10.9219 5.71636 11.0453C5.5723 11.1688 5.39418 11.2456 5.20555 11.2656L2.79555 11.5219V13.6081L5.20555 13.8644C5.39418 13.8844 5.5723 13.9612 5.71636 14.0847C5.86042 14.2081 5.96366 14.3723 6.01242 14.5556C6.18808 15.2146 6.45036 15.8475 6.79242 16.4375C6.88834 16.6019 6.93195 16.7916 6.91743 16.9814C6.90292 17.1712 6.83098 17.3521 6.71117 17.5L5.18805 19.3819L6.66367 20.8575L8.5493 19.3344C8.69714 19.2145 8.87799 19.1424 9.06778 19.1278C9.25758 19.1132 9.44732 19.1567 9.6118 19.2525C10.202 19.5953 10.8353 19.8578 11.4949 20.0331C11.6784 20.0818 11.8427 20.185 11.9663 20.329C12.0898 20.4731 12.1667 20.6513 12.1868 20.84L12.438 23.25Z" fill="black"/>
<path d="M13.4828 18.2725C12.3535 18.2724 11.2496 17.9374 10.3107 17.3099C9.37176 16.6824 8.63999 15.7906 8.20791 14.7472C7.77583 13.7038 7.66284 12.5558 7.88323 11.4482C8.10362 10.3406 8.6475 9.32321 9.44608 8.52471C10.2447 7.72621 11.2621 7.18245 12.3697 6.96218C13.4773 6.74191 14.6254 6.85502 15.6687 7.28722C16.712 7.71941 17.6038 8.45128 18.2312 9.39027C18.8586 10.3293 19.1934 11.4332 19.1934 12.5625C19.1918 14.0765 18.5896 15.528 17.519 16.5985C16.4484 17.669 14.9968 18.271 13.4828 18.2725ZM13.4828 8.72751C12.7243 8.72763 11.983 8.95266 11.3524 9.37413C10.7218 9.7956 10.2303 10.3946 9.94018 11.0954C9.65002 11.7961 9.57416 12.5672 9.72221 13.3111C9.87025 14.0549 10.2355 14.7382 10.7719 15.2745C11.3083 15.8108 11.9916 16.1759 12.7355 16.3239C13.4794 16.4718 14.2505 16.3958 14.9512 16.1055C15.6519 15.8152 16.2508 15.3237 16.6722 14.6931C17.0935 14.0624 17.3184 13.321 17.3184 12.5625C17.3173 11.5457 16.9128 10.5708 16.1937 9.85181C15.4746 9.13285 14.4997 8.7285 13.4828 8.72751Z" fill="black"/>
</svg>
