<svg width="38" height="38" viewBox="0 0 38 38" fill="none" xmlns="http://www.w3.org/2000/svg">
<path fill-rule="evenodd" clip-rule="evenodd" d="M29.5972 11.8718C31.8606 14.3949 33.25 17.7183 33.25 21.375C33.25 29.245 26.87 35.625 19 35.625C11.13 35.625 4.75 29.245 4.75 21.375C4.75 14.3157 9.88792 8.47163 16.625 7.33875V3.95833H15.0417C14.6039 3.95833 14.25 3.60367 14.25 3.16667C14.25 2.72967 14.6039 2.375 15.0417 2.375H22.9583C23.3961 2.375 23.75 2.72967 23.75 3.16667C23.75 3.60367 23.3961 3.95833 22.9583 3.95833H21.375V7.33479C24.088 7.79475 26.5398 9.01629 28.504 10.7785L30.3477 8.93475C30.6494 8.63313 31.1386 8.63313 31.441 8.93475C31.7427 9.23638 31.7427 9.72642 31.441 10.028L29.5972 11.8718ZM19.7917 3.95833H18.2083V7.16537C18.472 7.15033 18.7324 7.125 19 7.125C19.2676 7.125 19.528 7.14796 19.7917 7.16221V3.95833ZM19 8.70833C12.0048 8.70833 6.33333 14.379 6.33333 21.375C6.33333 28.371 12.0048 34.0417 19 34.0417C25.996 34.0417 31.6667 28.371 31.6667 21.375C31.6667 14.3798 25.996 8.70833 19 8.70833ZM19 24.5417C17.2512 24.5417 15.8333 23.1238 15.8333 21.375C15.8333 20.782 16.0067 20.2334 16.2909 19.7592L12.1006 15.5697C11.799 15.2681 11.799 14.778 12.1006 14.4764C12.403 14.1748 12.8923 14.1748 13.1939 14.4764L17.3842 18.6659C17.8592 18.3817 18.407 18.2083 19 18.2083C20.7488 18.2083 22.1667 19.6262 22.1667 21.375C22.1667 23.1238 20.7488 24.5417 19 24.5417ZM19 19.7917C18.126 19.7917 17.4167 20.501 17.4167 21.375C17.4167 22.249 18.126 22.9583 19 22.9583C19.874 22.9583 20.5833 22.249 20.5833 21.375C20.5833 20.501 19.874 19.7917 19 19.7917Z" fill="white"/>
</svg>
